<?xml version="1.0" standalone="no"?>
<!DOCTYPE svg PUBLIC "-//W3C//DTD SVG 1.1//EN"
  "http://www.w3.org/Graphics/SVG/1.1/DTD/svg11.dtd">
<svg width="128mm" height="177.99999999999997mm" viewBox="-64 -88.99999999999999 128 177.99999999999997" xmlns="http://www.w3.org/2000/svg" version="1.1">
	<title>svgOutput</title>
	<desc>made with tinkercad</desc>
<path d="M 62.78900146484375 -87.27500152587889 L 62.879615783691406 -87.04000091552733 L 62.880001068115234 -87.03900146484374 L 62.94599914550781 -86.78399658203124 L 62.986000061035156 -86.51499938964842 L 63 -86.23999786376952 L 63 -86.01599884033202 L 63 -81.9199981689453 L 63 -65.53600311279295 L 63 1.1102230246251565e-16 L 63 65.53600311279295 L 63 81.9199981689453 L 63 86.01599884033202 L 63 86.23999786376952 L 62.986000061035156 86.51499938964842 L 62.94599914550781 86.78399658203124 L 62.880001068115234 87.03900146484374 L 62.879615783691406 87.04000091552733 L 62.78900146484375 87.27500152587889 L 62.676998138427734 87.48500061035155 L 62.54600143432617 87.66400146484374 L 62.39799880981445 87.80799865722655 L 62.237998962402344 87.91400146484374 L 62.06999969482422 87.97799682617186 L 61.89799880981445 87.99999999999999 L 61.439998626708984 87.99999999999999 L 57.34400177001953 87.99999999999999 L 49.152000427246094 87.99999999999999 L 32.768001556396484 87.99999999999999 L 0 87.99999999999999 L -32.768001556396484 87.99999999999999 L -49.152000427246094 87.99999999999999 L -57.34400177001953 87.99999999999999 L -61.439998626708984 87.99999999999999 L -61.89799880981445 87.99999999999999 L -62.06999969482422 87.97799682617186 L -62.237998962402344 87.91400146484374 L -62.39799880981445 87.80799865722655 L -62.4640007019043 87.74378204345702 L -62.54600143432617 87.66400146484374 L -62.676998138427734 87.48500061035155 L -62.78900146484375 87.27500152587889 L -62.879615783691406 87.04000091552733 L -62.880001068115234 87.03900146484374 L -62.94599914550781 86.78399658203124 L -62.986000061035156 86.51499938964842 L -63 86.23999786376952 L -63 86.01599884033202 L -63 81.9199981689453 L -63 65.53600311279295 L -63 61.43999862670897 L -63 57.34400177001952 L -63 56.31609725952147 L -63 49.15200042724608 L -63 40.95999908447265 L -63 32.76800155639648 L -63 24.57600021362304 L -63 20.479999542236325 L -63 16.38400077819824 L -63 1.1102230246251565e-16 L -63 -16.38400077819824 L -63 -20.31336975097656 L -63 -20.479999542236325 L -63 -24.57600021362304 L -63 -32.76800155639648 L -63 -40.313369750976555 L -63 -40.95999908447265 L -63 -49.15200042724608 L -63 -52.909877777099595 L -63 -54.798480987548814 L -63 -56.31609725952147 L -63 -57.34400177001952 L -63 -61.43999862670897 L -63 -65.53600311279295 L -63 -81.9199981689453 L -63 -86.01599884033202 L -63 -86.23999786376952 L -62.986000061035156 -86.51499938964842 L -62.94599914550781 -86.78399658203124 L -62.880001068115234 -87.03900146484374 L -62.879615783691406 -87.04000091552733 L -62.78900146484375 -87.27500152587889 L -62.676998138427734 -87.48500061035155 L -62.54600143432617 -87.66400146484374 L -62.4640007019043 -87.74378204345702 L -62.39799880981445 -87.80799865722655 L -62.237998962402344 -87.91400146484374 L -62.06999969482422 -87.97799682617186 L -61.89799880981445 -87.99999999999999 L -61.439998626708984 -87.99999999999999 L -57.34400177001953 -87.99999999999999 L -49.152000427246094 -87.99999999999999 L -32.768001556396484 -87.99999999999999 L 0 -87.99999999999999 L 32.768001556396484 -87.99999999999999 L 49.152000427246094 -87.99999999999999 L 57.34400177001953 -87.99999999999999 L 61.439998626708984 -87.99999999999999 L 61.89799880981445 -87.99999999999999 L 62.06999969482422 -87.97799682617186 L 62.237998962402344 -87.91400146484374 L 62.39799880981445 -87.80799865722655 L 62.4640007019043 -87.74378204345702 L 62.54600143432617 -87.66400146484374 L 62.676998138427734 -87.48500061035155 L 62.78900146484375 -87.27500152587889 M -56.6879997253418 -62.94200134277342 L -57.250999450683594 -62.771999359130845 L -57.34400177001953 -62.72208786010741 L -57.76900100708008 -62.49399948120116 L -58.2239990234375 -62.120998382568345 L -58.59700012207031 -61.66699981689452 L -58.71815490722656 -61.43999862670897 L -58.874000549316406 -61.14799880981444 L -59.04499816894531 -60.58499908447264 L -59.10200119018555 -59.999999999999986 L -59.04499816894531 -59.41500091552733 L -58.874000549316406 -58.85200119018553 L -58.59700012207031 -58.333000183105455 L -58.2239990234375 -57.879001617431626 L -57.76900100708008 -57.506000518798814 L -57.46714401245117 -57.34400177001952 L -57.250999450683594 -57.228000640869126 L -56.6879997253418 -57.05799865722655 L -56.10200119018555 -56.999999999999986 L -55.516998291015625 -57.05799865722655 L -54.95399856567383 -57.228000640869126 L -54.737857818603516 -57.34400177001952 L -54.43600082397461 -57.506000518798814 L -53.98099899291992 -57.879001617431626 L -53.608001708984375 -58.333000183105455 L -53.33100128173828 -58.85200119018553 L -53.15999984741211 -59.41500091552733 L -53.10200119018555 -59.999999999999986 L -53.15999984741211 -60.58499908447264 L -53.33100128173828 -61.14799880981444 L -53.486846923828125 -61.43999862670897 L -53.608001708984375 -61.66699981689452 L -53.98099899291992 -62.120998382568345 L -54.43600082397461 -62.49399948120116 L -54.95399856567383 -62.771999359130845 L -55.516998291015625 -62.94200134277342 L -56.10200119018555 -62.999999999999986 L -56.6879997253418 -62.94200134277342 M -56.6879997253418 -42.94200134277343 L -57.250999450683594 -42.77199935913085 L -57.34400177001953 -42.722087860107415 L -57.76900100708008 -42.493999481201165 L -58.2239990234375 -42.12099838256835 L -58.59700012207031 -41.666999816894524 L -58.874000549316406 -41.147998809814446 L -58.93110275268555 -40.95999908447265 L -59.04499816894531 -40.58499908447265 L -59.10200119018555 -39.99999999999999 L -59.04499816894531 -39.41500091552734 L -58.874000549316406 -38.85200119018554 L -58.59700012207031 -38.33300018310546 L -58.2239990234375 -37.87900161743163 L -57.76900100708008 -37.50600051879882 L -57.34400177001953 -37.27791213989257 L -57.250999450683594 -37.22800064086913 L -56.6879997253418 -37.057998657226555 L -56.10200119018555 -36.99999999999999 L -55.516998291015625 -37.057998657226555 L -54.95399856567383 -37.22800064086913 L -54.43600082397461 -37.50600051879882 L -53.98099899291992 -37.87900161743163 L -53.608001708984375 -38.33300018310546 L -53.33100128173828 -38.85200119018554 L -53.15999984741211 -39.41500091552734 L -53.10200119018555 -39.99999999999999 L -53.15999984741211 -40.58499908447265 L -53.27389907836914 -40.95999908447265 L -53.33100128173828 -41.147998809814446 L -53.608001708984375 -41.666999816894524 L -53.98099899291992 -42.12099838256835 L -54.43600082397461 -42.493999481201165 L -54.95399856567383 -42.77199935913085 L -55.516998291015625 -42.94200134277343 L -56.10200119018555 -42.99999999999999 L -56.6879997253418 -42.94200134277343 M -56.6879997253418 -22.9419994354248 L -57.250999450683594 -22.771999359130856 L -57.34400177001953 -22.72208786010742 L -57.76900100708008 -22.49399948120117 L -58.2239990234375 -22.12100028991699 L -58.59700012207031 -21.666999816894528 L -58.874000549316406 -21.148000717163082 L -59.04499816894531 -20.584999084472653 L -59.05522918701172 -20.479999542236325 L -59.10200119018555 -19.999999999999996 L -59.04499816894531 -19.41500091552734 L -58.874000549316406 -18.85199928283691 L -58.59700012207031 -18.333000183105465 L -58.2239990234375 -17.878999710083004 L -57.76900100708008 -17.506000518798825 L -57.34400177001953 -17.277912139892575 L -57.250999450683594 -17.228000640869137 L -56.6879997253418 -17.05800056457519 L -56.10200119018555 -16.999999999999996 L -55.516998291015625 -17.05800056457519 L -54.95399856567383 -17.228000640869137 L -54.43600082397461 -17.506000518798825 L -53.98099899291992 -17.878999710083004 L -53.608001708984375 -18.333000183105465 L -53.33100128173828 -18.85199928283691 L -53.15999984741211 -19.41500091552734 L -53.10200119018555 -19.999999999999996 L -53.14958953857422 -20.479999542236325 L -53.15999984741211 -20.584999084472653 L -53.33100128173828 -21.148000717163082 L -53.608001708984375 -21.666999816894528 L -53.98099899291992 -22.12100028991699 L -54.43600082397461 -22.49399948120117 L -54.95399856567383 -22.771999359130856 L -55.516998291015625 -22.9419994354248 L -56.10200119018555 -22.999999999999996 L -56.6879997253418 -22.9419994354248 M -56.6879997253418 17.05800056457519 L -57.250999450683594 17.228000640869137 L -57.34400177001953 17.277912139892575 L -57.76900100708008 17.506000518798825 L -58.2239990234375 17.878999710083004 L -58.59700012207031 18.333000183105465 L -58.874000549316406 18.85199928283691 L -59.04499816894531 19.41500091552734 L -59.10200119018555 19.999999999999996 L -59.05522918701172 20.479999542236325 L -59.04499816894531 20.584999084472653 L -58.874000549316406 21.148000717163082 L -58.59700012207031 21.666999816894528 L -58.2239990234375 22.12100028991699 L -57.76900100708008 22.49399948120117 L -57.34400177001953 22.72208786010742 L -57.250999450683594 22.771999359130856 L -56.6879997253418 22.9419994354248 L -56.10200119018555 22.999999999999996 L -55.516998291015625 22.9419994354248 L -54.95399856567383 22.771999359130856 L -54.43600082397461 22.49399948120117 L -53.98099899291992 22.12100028991699 L -53.608001708984375 21.666999816894528 L -53.33100128173828 21.148000717163082 L -53.15999984741211 20.584999084472653 L -53.14958953857422 20.479999542236325 L -53.10200119018555 19.999999999999996 L -53.15999984741211 19.41500091552734 L -53.33100128173828 18.85199928283691 L -53.608001708984375 18.333000183105465 L -53.98099899291992 17.878999710083004 L -54.43600082397461 17.506000518798825 L -54.95399856567383 17.228000640869137 L -55.516998291015625 17.05800056457519 L -56.10200119018555 16.999999999999996 L -56.6879997253418 17.05800056457519 M -56.6879997253418 37.057998657226555 L -57.250999450683594 37.22800064086913 L -57.34400177001953 37.27791213989257 L -57.76900100708008 37.50600051879882 L -58.2239990234375 37.87900161743163 L -58.59700012207031 38.33300018310546 L -58.874000549316406 38.85200119018554 L -59.04499816894531 39.41500091552734 L -59.10200119018555 39.99999999999999 L -59.04499816894531 40.58499908447265 L -58.93110275268555 40.95999908447265 L -58.874000549316406 41.147998809814446 L -58.59700012207031 41.666999816894524 L -58.2239990234375 42.12099838256835 L -57.76900100708008 42.493999481201165 L -57.34400177001953 42.722087860107415 L -57.250999450683594 42.77199935913085 L -56.6879997253418 42.94200134277343 L -56.10200119018555 42.99999999999999 L -55.516998291015625 42.94200134277343 L -54.95399856567383 42.77199935913085 L -54.43600082397461 42.493999481201165 L -53.98099899291992 42.12099838256835 L -53.608001708984375 41.666999816894524 L -53.33100128173828 41.147998809814446 L -53.27389907836914 40.95999908447265 L -53.15999984741211 40.58499908447265 L -53.10200119018555 39.99999999999999 L -53.15999984741211 39.41500091552734 L -53.33100128173828 38.85200119018554 L -53.608001708984375 38.33300018310546 L -53.98099899291992 37.87900161743163 L -54.43600082397461 37.50600051879882 L -54.95399856567383 37.22800064086913 L -55.516998291015625 37.057998657226555 L -56.10200119018555 36.99999999999999 L -56.6879997253418 37.057998657226555 M -54.95399856567383 57.228000640869126 L -55.516998291015625 57.05799865722655 L -56.10200119018555 56.999999999999986 L -56.6879997253418 57.05799865722655 L -57.250999450683594 57.228000640869126 L -57.46714401245117 57.34400177001952 L -57.76900100708008 57.506000518798814 L -58.2239990234375 57.879001617431626 L -58.59700012207031 58.333000183105455 L -58.874000549316406 58.85200119018553 L -59.04499816894531 59.41500091552733 L -59.10200119018555 59.999999999999986 L -59.04499816894531 60.58499908447264 L -58.874000549316406 61.14799880981444 L -58.71815490722656 61.43999862670897 L -58.59700012207031 61.66699981689452 L -58.2239990234375 62.120998382568345 L -57.76900100708008 62.49399948120116 L -57.34400177001953 62.72208786010741 L -57.250999450683594 62.771999359130845 L -56.6879997253418 62.94200134277342 L -56.10200119018555 62.999999999999986 L -55.516998291015625 62.94200134277342 L -54.95399856567383 62.771999359130845 L -54.43600082397461 62.49399948120116 L -53.98099899291992 62.120998382568345 L -53.608001708984375 61.66699981689452 L -53.486846923828125 61.43999862670897 L -53.33100128173828 61.14799880981444 L -53.15999984741211 60.58499908447264 L -53.10200119018555 59.999999999999986 L -53.15999984741211 59.41500091552733 L -53.33100128173828 58.85200119018553 L -53.608001708984375 58.333000183105455 L -53.98099899291992 57.879001617431626 L -54.43600082397461 57.506000518798814 L -54.737857818603516 57.34400177001952 L -54.95399856567383 57.228000640869126 z" fill="none" stroke="rgb(255,0,0)" stroke-width="0.001mm" />
</svg>